<svg xmlns="http://www.w3.org/2000/svg" viewBox="0 0 256.01 180.02"><defs><style>.cls-1{fill:#ff1562;}</style></defs><g id="Layer_2" data-name="Layer 2"><g id="Camada_1" data-name="Camada 1"><path class="cls-1" d="M128,0H230.44a31.31,31.31,0,0,1,9.39,1c2.07.64,3.12,1.36,1,3.23-.62.56-1.19,1.17-1.77,1.76L136.43,109c-6.37,6.38-10.48,6.39-16.83,0Q68.09,57.31,16.6,5.61c-1-1-2.94-1.79-2.45-3.38S16.69.76,18.09.56A55.6,55.6,0,0,1,26,0Q77,0,128,0Z"/><path class="cls-1" d="M13.93,177.94c.28-1.81,1.7-2.56,2.71-3.57C39.9,151,63.23,127.69,86.39,104.22c2.79-2.84,4.36-3.43,7.3-.17,5.35,5.93,11.18,11.43,16.86,17,10.45,10.33,24.55,10.27,35.06-.15,5.79-5.74,11.67-11.41,17.23-17.38,2.47-2.66,3.83-2.31,6.21.1q35.31,35.7,70.88,71.14c2.66,2.65,2.67,3.74-1.18,4.54a35.86,35.86,0,0,1-7.43.67H24.48C20.83,180,17.18,180,13.93,177.94Z"/><path class="cls-1" d="M2.66,12.65c3.54,3.64,6.62,6.89,9.78,10.06q31.91,32,63.86,64.05c1.77,1.77,3.73,2.93.78,5.85Q40.38,129,4,165.78a13.25,13.25,0,0,1-1.55,1.1A17.27,17.27,0,0,1,0,157.48V22.55A19.09,19.09,0,0,1,2.66,12.65Z"/><path class="cls-1" d="M253.51,13A20.45,20.45,0,0,1,256,23.61q0,66.45,0,132.91a19.71,19.71,0,0,1-2.27,10.12c-1.87-.32-2.72-1.89-3.85-3-23.31-23.34-46.52-46.76-69.95-70-3-3-2.82-4.45.09-7.33,23.29-23.11,46.4-46.4,69.57-69.63C250.76,15.51,252,14.41,253.51,13Z"/></g></g></svg>