<svg xmlns="http://www.w3.org/2000/svg" viewBox="0 0 258.27 248.93"><defs><style>.cls-1{fill:#ff1562;}</style></defs><g id="Layer_2" data-name="Layer 2"><g id="Camada_1" data-name="Camada 1"><path class="cls-1" d="M206.93,76.24Q219.37,70,227.15,70q12.43,0,21.78,10.12t9.34,25.67a28.56,28.56,0,0,1-8.56,21q-8.57,8.58-25.67,8.56H140l66.9,54.45q14,10.91,14,24.89c0,9.34-3.65,17.39-10.89,24.12s-15.56,10.11-24.89,10.11c-5.21,0-10.65-1.79-16.34-5.44s-10.11-9.58-13.23-17.89l-26.44-79.35L99.57,225.6q-4.66,12.47-13.22,17.89c-5.71,3.65-11.16,5.44-16.34,5.44-9.33,0-17.65-3.35-24.89-10.11S34.23,224,34.23,214.7q0-15.52,15.56-26.44l66.9-51.35L31.12,133.8c-11.43-1-19.45-4.13-24.12-9.33s-7-11.91-7-20.23S2.85,87.91,8.56,80.13,21.78,68.46,31.12,68.46q9.33,0,21.78,7.78l68.46,46.67L98,42a40,40,0,0,1-1.56-12.45Q96.46,14,106.58,7a38.71,38.71,0,0,1,22.56-7,34.15,34.15,0,0,1,22.55,8.56q10.11,8.57,10.12,27.22v1.56a14,14,0,0,1-1.56,6.23l-24.89,79.34Z"/></g></g></svg>