<svg xmlns="http://www.w3.org/2000/svg" viewBox="0 0 256.06 255.99"><defs><style>.cls-1{fill:#ff1562;}</style></defs><g id="Layer_2" data-name="Layer 2"><g id="Camada_1" data-name="Camada 1"><path class="cls-1" d="M44.46,0c7.5,0,15-.12,22.49,0C79.26.33,87.62,8.46,88,20.82a164.21,164.21,0,0,0,7,44.25c2.59,8.29,1,15.52-4.65,22.33-6.68,8.09-12.64,16.76-19.1,25-1.75,2.25-1.5,3.87-.25,6.21,15.49,28.88,37.75,50.91,66.56,66.46,2.47,1.34,4.05,1.15,6.18-.5,8.55-6.64,17.34-13,25.84-19.69,6-4.7,12.51-6.29,19.67-4.16a178.11,178.11,0,0,0,46.7,7.44c11.63.29,19.81,9,20,20.76.2,15.16.16,30.33,0,45.49-.12,13.26-8.87,21.72-22.27,21.55-52.51-.69-99.93-16.61-141.43-48.8-50.32-39-80.2-90.4-89.9-153.37A205.8,205.8,0,0,1,0,22C.05,8.92,8.45.27,21.46.06,29.12-.06,36.79,0,44.46,0Z"/></g></g></svg>