<svg xmlns="http://www.w3.org/2000/svg" viewBox="0 0 20.04 20.04"><defs><style>.cls-1{fill:none;}.cls-2{fill:#ff1562;fill-rule:evenodd;}</style></defs><g id="Layer_2" data-name="Layer 2"><g id="Layer_1-2" data-name="Layer 1"><rect class="cls-1" width="20.04" height="20.04"/><path class="cls-2" d="M10,2.22c-2.17,0-2.45,0-3.3,0A4.79,4.79,0,0,0,3.36,3.53,4.58,4.58,0,0,0,2.07,6.8C2,7.63,2,7.9,2,10s0,2.38,0,3.21a4.6,4.6,0,0,0,1.29,3.28,4.88,4.88,0,0,0,3.36,1.26c.85,0,1.13.05,3.3.05s2.44,0,3.3-.05a4.88,4.88,0,0,0,3.36-1.26A4.64,4.64,0,0,0,18,13.23c0-.83.05-1.09.05-3.21S18,7.63,18,6.8a4.62,4.62,0,0,0-1.29-3.27,4.79,4.79,0,0,0-3.36-1.26C12.46,2.23,12.19,2.22,10,2.22Zm0,1.4c2.13,0,2.39,0,3.23,0a3.51,3.51,0,0,1,2.41.85,3.28,3.28,0,0,1,.87,2.35c0,.82,0,1.07,0,3.15s0,2.33,0,3.15a3.26,3.26,0,0,1-.87,2.34,3.47,3.47,0,0,1-2.41.86c-.84,0-1.1,0-3.23,0s-2.39,0-3.23,0a3.47,3.47,0,0,1-2.41-.86,3.26,3.26,0,0,1-.87-2.34c0-.82,0-1.07,0-3.15s0-2.33,0-3.15a3.28,3.28,0,0,1,.87-2.35,3.51,3.51,0,0,1,2.41-.85C7.63,3.63,7.88,3.62,10,3.62ZM5.91,10a4.11,4.11,0,0,1,8.22,0A4.06,4.06,0,0,1,10,14,4.06,4.06,0,0,1,5.91,10ZM10,12.62A2.6,2.6,0,1,1,12.69,10,2.64,2.64,0,0,1,10,12.62Zm5.23-6.77a1,1,0,1,1-1-.93A.95.95,0,0,1,15.25,5.85Z"/></g></g></svg>