<svg xmlns="http://www.w3.org/2000/svg" viewBox="0 0 20.04 20.04"><defs><style>.cls-1{fill:none;}.cls-2{fill:#ff1562;}</style></defs><g id="Layer_2" data-name="Layer 2"><g id="Layer_1-2" data-name="Layer 1"><rect class="cls-1" width="20.04" height="20.04"/><path class="cls-2" d="M19.14,2.59a9,9,0,0,1-2.6,1.27,3.73,3.73,0,0,0-4.13-1,3.74,3.74,0,0,0-1.75,1.39A3.68,3.68,0,0,0,10,6.34v.83a8.8,8.8,0,0,1-4.21-.94A8.73,8.73,0,0,1,2.56,3.42S-.76,10.88,6.7,14.2A9.58,9.58,0,0,1,.9,15.85c7.46,4.15,16.58,0,16.58-9.53a4,4,0,0,0-.06-.69A6.43,6.43,0,0,0,19.14,2.59Z"/></g></g></svg>